<?xml version="1.0" encoding="iso-8859-1"?>
<!-- Generator: Adobe Illustrator 24.3.0, SVG Export Plug-In . SVG Version: 6.00 Build 0)  -->
<svg version="1.1" id="Layer_1" xmlns="http://www.w3.org/2000/svg" xmlns:xlink="http://www.w3.org/1999/xlink" x="0px" y="0px"
	 viewBox="0 0 500 500" style="enable-background:new 0 0 500 500;" xml:space="preserve">
<g>
</g>
<g>
	<rect style="fill:transparent;" width="500" height="500"/>
	<g>
		<g>
			<path style="fill:#F9F9F9;" d="M42.335,170.754c0,0,30.995,21.277,43.393,32.168c0,0,76.063-52.441,164.356-91.309
				c0,0-55.121-4.356-88.126-3.35C161.958,108.262,128.952,120.324,42.335,170.754z"/>
			<path style="fill:#F9F9F9;" d="M200.157,92.681c0,0,72.042,22.45,137.717,63.162l6.199-45.236c0,0-49.759-22.953-93.487-33.675
				C250.586,76.932,230.985,81.791,200.157,92.681z"/>
			<path style="fill:#F9F9F9;" d="M386.294,130.713c0,0-49.927,20.775-135.205,82.932c0,0,58.639,8.545,122.471,23.456
				c0,0,47.078-41.382,84.44-66.346C458,170.755,419.467,146.629,386.294,130.713z"/>
			<path style="fill:#F9F9F9;" d="M330.502,275.634l-80.084,76.063c0,0-104.21-99.518-128.838-119.12
				c0,0,33.341-65.341,41.047-76.566C162.628,156.011,258.796,214.649,330.502,275.634z"/>
			<ellipse style="fill:#F9F9F9;" cx="250" cy="156.43" rx="50.513" ry="29.068"/>
		</g>
		<g>
			<path style="fill:#F9F9F9;" d="M390.566,386.964c0,0,0.335,3.435,0.335,5.78s0,29.821,0,29.821h10.555
				c0,0,0.084-15.079,0.084-18.597c0-3.518,1.843-7.287,5.361-7.957c3.518-0.67,5.194,0.083,5.194,0.083v-8.964
				c0,0-3.685-0.336-6.283,0.754c-2.598,1.09-5.026,5.445-5.026,5.445l-0.587-6.283L390.566,386.964z"/>
			<path style="fill:#F9F9F9;" d="M343.655,371.633l-0.084,20.607c0,0-2.68-5.613-10.136-5.529s-11.56,6.954-11.56,17.676
				c0,10.722,4.775,18.68,12.565,18.68c7.791,0,9.215-5.78,9.215-5.78l0.837,5.194h9.55v-50.849H343.655z M338.043,415.612
				c-3.191,0-5.362-2.931-5.362-11.099s2.171-11.1,5.362-11.1c3.191,0,5.444,4.105,5.444,11.1S341.235,415.612,338.043,415.612z"/>
			<polygon style="fill:#F9F9F9;" points="259.467,422.565 259.467,371.717 287.529,371.717 287.529,380.094 270.691,380.094
				270.691,392.491 286.86,392.491 286.86,400.869 270.691,400.869 270.691,422.648 			"/>
			<path style="fill:#F9F9F9;" d="M172.765,387.047h18.597v-7.121L202,376.492v10.722h6.869v7.288h-7.037c0,0,0,13.822,0,17.592
				c0,3.77,5.529,4.356,7.121,2.764v7.456c0,0-2.429,0.754-7.288,0.754c-4.859,0-10.304-2.848-10.304-10.89
				c0-8.042,0-17.592,0-17.592h-7.958v27.895h-10.555L172.765,387.047z"/>
			<path style="fill:#F9F9F9;" d="M138.083,387.298c0,0-3.77-0.922-11.56-0.503c-7.791,0.419-14.492,7.456-14.492,18.346
				s7.037,17.926,15.33,17.926s10.806-0.503,10.806-0.503v-8.293c0,0-1.927,0.503-8.126,0.503c-6.199,0-6.785-8.376-6.785-10.973
				s2.01-8.21,6.283-8.712s7.958,0.083,7.958,0.083L138.083,387.298z"/>
			<path style="fill:#F9F9F9;" d="M70.984,400.618c-1.257-2.596-4.356-3.351-4.356-3.351s9.717-3.099,9.717-12.649
				c0-9.55-9.466-13.068-12.733-13.068s-21.613,0-21.613,0v51.099h11.812v-21.025c0,0,3.393-0.461,5.529,1.675
				c2.558,2.558,6.617,19.267,6.617,19.267H78.44C78.44,422.565,72.24,403.214,70.984,400.618z M59.005,393.33
				c-0.921,0-5.529,0-5.529,0V380.01c0,0,4.021,0.167,5.194,0.167s5.613,1.257,5.613,6.367
				C64.283,391.655,59.926,393.33,59.005,393.33z"/>
			<path style="fill:#F9F9F9;" d="M88.492,407.571h20.859c0-18.429-9.131-20.859-14.743-20.859s-16,3.016-16,17.507
				c0,14.491,8.88,18.848,16.838,18.848s11.895-0.669,11.895-0.669v-7.958c0,0-2.597,1.676-9.466,1.676
				C88.157,416.115,88.492,407.571,88.492,407.571z M94.188,392.995c5.948,0,5.697,8.879,5.697,8.879l-11.309-0.083
				C88.576,401.791,88.073,392.995,94.188,392.995z"/>
			<path style="fill:#F9F9F9;" d="M148.722,407.571h20.859c0-18.429-9.131-20.859-14.743-20.859s-16,3.016-16,17.507
				c0,14.491,8.88,18.848,16.838,18.848c7.958,0,11.895-0.669,11.895-0.669v-7.958c0,0-2.597,1.676-9.466,1.676
				C148.387,416.115,148.722,407.571,148.722,407.571z M154.418,392.995c5.948,0,5.697,8.879,5.697,8.879l-11.309-0.083
				C148.806,401.791,148.304,392.995,154.418,392.995z"/>
			<path style="fill:#F9F9F9;" d="M298.251,407.571h20.859c0-18.429-9.13-20.859-14.743-20.859c-5.612,0-16,3.016-16,17.507
				c0,14.491,8.879,18.848,16.838,18.848c7.958,0,11.895-0.669,11.895-0.669v-7.958c0,0-2.596,1.676-9.465,1.676
				C297.916,416.115,298.251,407.571,298.251,407.571z M303.948,392.995c5.948,0,5.697,8.879,5.697,8.879l-11.309-0.083
				C298.335,401.791,297.833,392.995,303.948,392.995z"/>
			<path style="fill:#F9F9F9;" d="M367.11,407.571h20.859c0-18.429-9.13-20.859-14.743-20.859c-5.612,0-16,3.016-16,17.507
				c0,14.491,8.879,18.848,16.838,18.848c7.958,0,11.895-0.669,11.895-0.669v-7.958c0,0-2.595,1.676-9.465,1.676
				C366.775,416.115,367.11,407.571,367.11,407.571z M372.806,392.995c5.948,0,5.697,8.879,5.697,8.879l-11.309-0.083
				C367.194,401.791,366.691,392.995,372.806,392.995z"/>
			<rect x="172.765" y="371.549" style="fill:#F9F9F9;" width="10.806" height="9.131"/>
			<path style="fill:#F9F9F9;" d="M228.722,386.711c-10.472,0-13.906,0.419-13.906,0.419v8.796c0,0,4.356-2.262,10.471-2.262
				c6.115,0,6.534,4.188,6.534,6.869c0,0-3.434-0.418-9.466,0.419c-6.031,0.837-11.476,3.853-11.476,12.063
				s8.21,10.052,11.058,10.052c5.361,0,9.717-4.858,9.717-4.858v4.439h9.801c0,0,0-22.952,0-25.549S239.194,386.711,228.722,386.711
				z M231.57,410.167c0,1.089-1.759,6.031-6.534,6.031c-4.775,0-4.356-4.859-4.356-5.445s0.921-3.351,4.188-4.44
				c3.267-1.089,5.361-1.004,6.869-0.921C231.738,405.393,231.57,409.079,231.57,410.167z"/>
			<path style="fill:#F9F9F9;" d="M429.184,386.711c-10.472,0-13.906,0.419-13.906,0.419v8.796c0,0,4.357-2.262,10.472-2.262
				c6.115,0,6.534,4.188,6.534,6.869c0,0-3.435-0.418-9.466,0.419c-6.031,0.837-11.476,3.853-11.476,12.063
				s8.21,10.052,11.058,10.052c5.361,0,9.717-4.858,9.717-4.858v4.439h9.801c0,0,0-22.952,0-25.549S439.655,386.711,429.184,386.711
				z M432.032,410.167c0,1.089-1.759,6.031-6.534,6.031c-4.775,0-4.356-4.859-4.356-5.445s0.921-3.351,4.188-4.44
				c3.267-1.089,5.362-1.004,6.87-0.921C432.2,405.393,432.032,409.079,432.032,410.167z"/>
			<rect x="446.691" y="371.549" style="fill:#F9F9F9;" width="10.639" height="51.1"/>
		</g>
	</g>
</g>
</svg>
